Coordinates
version=1
nRows=8
nColumns=40
inDegrees=yes

Units are S.I. units (second, meters, Newtons, ...)
If the header above contains a line with 'inDegrees', this indicates whether rotational values are in degrees (yes) or radians (no).

endheader
time	pelvis_tilt	pelvis_list	pelvis_rotation	pelvis_tx	pelvis_ty	pelvis_tz	hip_flexion_r	hip_adduction_r	hip_rotation_r	knee_angle_r	knee_angle_r_beta	ankle_angle_r	subtalar_angle_r	mtp_angle_r	hip_flexion_l	hip_adduction_l	hip_rotation_l	knee_angle_l	knee_angle_l_beta	ankle_angle_l	subtalar_angle_l	mtp_angle_l	lumbar_extension	lumbar_bending	lumbar_rotation	arm_flex_r	arm_add_r	arm_rot_r	elbow_flex_r	pro_sup_r	wrist_flex_r	wrist_dev_r	arm_flex_l	arm_add_l	arm_rot_l	elbow_flex_l	pro_sup_l	wrist_flex_l	wrist_dev_l
      0.53000000	     17.92849984	     -3.34321121	     -0.30630775	     -0.61858379	      0.88397555	      0.24619408	    -29.71621720	      6.06382005	     -3.27214387	     11.11823162	      0.19404975	     15.52088911	      0.00000000	      0.00000000	      8.47266054	     -3.67158838	     -2.74584122	     10.50078816	      0.18327333	      1.51026011	      0.00000000	      0.00000000	    -38.56616864	      1.52718133	      8.22398230	      9.72526546	     -7.42790299	     -2.37819492	     47.62980891	     88.32061675	     -6.54762761	      1.96514063	     -1.72250539	     -2.71054741	     -0.47663011	     23.04866344	     89.06261220	    -19.52123375	     -0.95748488
      0.54000000	     17.62872747	     -3.37928438	     -0.35640750	     -0.60688892	      0.88234996	      0.24508546	    -29.73579896	      5.89669470	     -3.30359079	     12.13222847	      0.21174733	     15.41840825	      0.00000000	      0.00000000	      8.82154829	     -3.59118274	     -2.71449845	     10.95582961	      0.19121530	      1.30812050	      0.00000000	      0.00000000	    -38.22300582	      1.54550622	      8.32174546	      9.74671685	     -7.45456570	     -2.35282210	     47.74607151	     88.32470329	     -6.52675730	      1.91280547	     -1.85147153	     -2.67646792	     -0.47333308	     22.69763455	     89.07623455	    -19.47479680	     -0.86988535
      0.55000000	     17.39587581	     -3.34740144	     -0.45379133	     -0.59497019	      0.88095880	      0.24393187	    -29.75629898	      5.61028124	     -3.34747767	     13.30741123	      0.23225814	     15.23435676	      0.00000000	      0.00000000	      9.09083769	     -3.45518820	     -2.77264405	     11.72637359	      0.20466383	      1.03938602	      0.00000000	      0.00000000	    -37.92133436	      1.50510771	      8.40086337	      9.72158524	     -7.45930592	     -2.35480758	     47.82663475	     88.31848876	     -6.50539815	      1.84858993	     -1.95956175	     -2.66740587	     -0.39247985	     22.32870318	     89.09340143	    -19.40184316	     -0.76657853
      0.56000000	     17.20922951	     -3.22931346	     -0.54239023	     -0.58276896	      0.87976050	      0.24268891	    -29.76618783	      5.22554357	     -3.36244151	     14.63736633	      0.25547024	     14.88207884	      0.00000000	      0.00000000	      9.30668632	     -3.23718513	     -2.88588320	     12.77364950	      0.22294224	      0.72697482	      0.00000000	      0.00000000	    -37.64040433	      1.36697776	      8.46359616	      9.61777515	     -7.44465725	     -2.41093958	     47.84389503	     88.30613430	     -6.49200952	      1.77976053	     -2.04614744	     -2.64905057	     -0.26454419	     21.99212387	     89.10613038	    -19.31408821	     -0.65959890
      0.57000000	     17.10165944	     -3.00352538	     -0.71039634	     -0.57030493	      0.87886966	      0.24149354	    -29.77675824	      4.66032244	     -3.49334546	     16.13857200	      0.28167122	     14.27952125	      0.00000000	      0.00000000	      9.43369207	     -2.94569768	     -3.41687402	     14.07274826	      0.24561579	      0.37653370	      0.00000000	      0.00000000	    -37.43128559	      1.12879381	      8.57613541	      9.39828069	     -7.42145821	     -2.63122713	     47.92227608	     88.29761767	     -6.47313321	      1.59792308	     -2.07655606	     -2.70724378	      0.10718769	     21.61622726	     89.10845898	    -19.10928387	     -0.46192451
      0.58000000	     17.04924435	     -2.71372310	     -0.80680165	     -0.55768199	      0.87819728	      0.24021000	    -29.77878572	      4.07600771	     -3.37655965	     17.77177539	      0.31017599	     13.48707535	      0.00000000	      0.00000000	      9.48293578	     -2.54378459	     -3.30522678	     15.47618487	      0.27011038	      0.03500842	      0.00000000	      0.00000000	    -37.22596801	      0.84988693	      8.63019819	      9.18974546	     -7.36664336	     -2.82961425	     47.76894332	     88.27702568	     -6.48631418	      1.54292278	     -2.10178122	     -2.75689004	      0.20169397	     21.36522914	     89.11566469	    -19.03411291	     -0.36361978
      0.59000000	     17.08088772	     -2.36488375	     -0.84016539	     -0.54483686	      0.87783131	      0.23873773	    -29.77811506	      3.44460296	     -3.36985257	     19.56419458	      0.34145961	     12.41447013	      0.00000000	      0.00000000	      9.43364373	     -2.08043653	     -3.32148257	     16.98873649	      0.29650939	     -0.26624547	      0.00000000	      0.00000000	    -37.11031517	      0.54528185	      8.60495513	      8.89709907	     -7.30053198	     -3.07068121	     47.58480873	     88.25932565	     -6.50717776	      1.48685829	     -2.12901212	     -2.81764020	      0.29787928	     21.16877868	     89.11966070	    -18.96515994	     -0.27255690
      0.60000000	     17.21396448	     -1.84306600	     -0.99346606	     -0.53167220	      0.87788998	      0.23735566	    -29.77311424	      2.52734700	     -3.63749971	     21.53728566	      0.37589655	     10.58549821	      0.00000000	      0.00000000	      9.15372559	     -1.45870173	     -3.73309659	     18.39334647	      0.32102446	     -0.63069896	      0.00000000	      0.00000000	    -37.09208776	      0.04500280	      8.73703959	      8.39993776	     -7.18907421	     -3.70574889	     47.56801808	     88.27829850	     -6.47552159	      1.17145323	     -2.06001440	     -2.92283903	      0.70455458	     20.96770540	     89.11653160	    -18.72588652	      0.06383952
